<?xml version="1.0" encoding="UTF-8"?>
<!-- Generated by Pixelmator Pro 3.6.18 -->
<svg width="272" height="316" viewBox="0 0 272 316" xmlns="http://www.w3.org/2000/svg">
    <path id="Pfad" fill="#000000" fill-rule="evenodd" stroke="none" d="M 37.008003 0 L 126.990005 82.904999 L 126.990005 82.885986 L 126.990005 0.191284 L 144.505997 0.191284 L 144.505997 83.276001 L 234.890991 0 L 234.890991 94.523987 L 272 94.523987 L 272 230.865997 L 235.005005 230.865997 L 235.005005 315.035004 L 144.505997 235.524994 L 144.505997 315.947998 L 126.990005 315.947998 L 126.990005 236.835999 L 37.110001 316 L 37.110001 230.865997 L 0 230.865997 L 0 94.523987 L 37.008003 94.523987 L 37.008003 0 Z M 113.785004 111.826004 L 17.5159 111.826004 L 17.5159 213.563995 L 37.087997 213.563995 L 37.087997 181.472 L 113.785004 111.826004 Z M 54.625 189.149002 L 54.625 277.391998 L 126.990005 213.654999 L 126.990005 123.421005 L 54.625 189.149002 Z M 145.009995 212.811996 L 145.009995 123.335999 L 217.395996 189.067993 L 217.395996 230.865997 L 217.489014 230.865997 L 217.489014 276.490997 L 145.009995 212.811996 Z M 235.005005 213.563995 L 254.484009 213.563995 L 254.484009 111.826004 L 158.932007 111.826004 L 235.005005 180.751007 L 235.005005 213.563995 Z M 217.375 94.523987 L 217.375 39.798309 L 157.977005 94.523987 L 217.375 94.523987 Z M 113.921005 94.523987 L 54.524002 94.523987 L 54.524002 39.798309 L 113.921005 94.523987 Z"/>
</svg>
